HIERARCHY
ROOT Pelvis
{
	OFFSET 0.000000 0.000000 0.000000
	CHANNELS 6 Xposition Yposition Zposition Xrotation Yrotation Zrotation
	JOINT LeftUpLeg_virtual
	{
		OFFSET 0.000000 0.000000 0.000000
		CHANNELS 3 Xrotation Yrotation Zrotation
		JOINT LeftUpLeg
		{
			OFFSET 18.735201 -5.666702 -4.541200
			CHANNELS 3 Xrotation Yrotation Zrotation
			JOINT LeftLeg
			{
				OFFSET -0.021200 -31.938179 0.493100
				CHANNELS 3 Xrotation Yrotation Zrotation
				JOINT LeftFoot
				{
					OFFSET 0.021200 -31.938179 -4.336299
					CHANNELS 3 Xrotation Yrotation Zrotation
					JOINT LeftToeBase
					{
						OFFSET 0.943001 -26.722000 15.023500
						CHANNELS 3 Xrotation Yrotation Zrotation
						End Site
						{
							OFFSET 0 0 0
						}
					}
				}
			}
		}
	}
	JOINT RightUpLeg_virtual
	{
		OFFSET 0.000000 0.000000 0.000000
		CHANNELS 3 Xrotation Yrotation Zrotation
		JOINT RightUpLeg
		{
			OFFSET -18.735201 -5.666702 -4.541200
			CHANNELS 3 Xrotation Yrotation Zrotation
			JOINT RightLeg
			{
				OFFSET 0.018946 -31.938133 0.493100
				CHANNELS 3 Xrotation Yrotation Zrotation
				JOINT RightFoot
				{
					OFFSET -0.018946 -31.938126 -4.336299
					CHANNELS 3 Xrotation Yrotation Zrotation
					JOINT RightToeBase
					{
						OFFSET -0.943001 -26.722004 15.023500
						CHANNELS 3 Xrotation Yrotation Zrotation
						End Site
						{
							OFFSET 0 0 0
						}
					}
				}
			}
		}
	}
	JOINT Hips_virtual
	{
		OFFSET 0.000000 0.000000 0.000000
		CHANNELS 3 Xrotation Yrotation Zrotation
		JOINT Hips
		{
			OFFSET -0.000000 -0.000000 -0.000000
			CHANNELS 3 Xrotation Yrotation Zrotation
			JOINT Spine
			{
				OFFSET 0.000000 10.199997 -0.299500
				CHANNELS 3 Xrotation Yrotation Zrotation
				JOINT Spine1
				{
					OFFSET 0.000000 11.900002 -1.516600
					CHANNELS 3 Xrotation Yrotation Zrotation
					JOINT Spine2
					{
						OFFSET 0.000000 13.600006 -2.842500
						CHANNELS 3 Xrotation Yrotation Zrotation
						JOINT Neck_virtual
						{
							OFFSET 0.000000 0.000000 0.000000
							CHANNELS 3 Xrotation Yrotation Zrotation
							JOINT Neck
							{
								OFFSET 0.000000 9.624100 -2.890100
								CHANNELS 3 Xrotation Yrotation Zrotation
								JOINT Head
								{
									OFFSET 0.000000 14.068802 -1.351900
									CHANNELS 3 Xrotation Yrotation Zrotation
									End Site
									{
										OFFSET 0 0 0
									}
								}
							}
						}
						JOINT LeftShoulder_virtual
						{
							OFFSET 0.000000 0.000000 0.000000
							CHANNELS 3 Xrotation Yrotation Zrotation
							JOINT LeftShoulder
							{
								OFFSET 15.263000 10.923401 -0.547700
								CHANNELS 3 Xrotation Yrotation Zrotation
								JOINT LeftArm
								{
									OFFSET 25.438599 -2.830597 -13.032500
									CHANNELS 3 Xrotation Yrotation Zrotation
									JOINT LeftForeArm
									{
										OFFSET 29.960503 0.000000 0.000000
										CHANNELS 3 Xrotation Yrotation Zrotation
										JOINT LeftHand
										{
											OFFSET 27.849251 0.000000 0.000000
											CHANNELS 3 Xrotation Yrotation Zrotation
											End Site
											{
												OFFSET 0 0 0
											}
										}
									}
								}
							}
						}
						JOINT RightShoulder_virtual
						{
							OFFSET 0.000000 0.000000 0.000000
							CHANNELS 3 Xrotation Yrotation Zrotation
							JOINT RightShoulder
							{
								OFFSET -15.263000 10.923401 -0.547700
								CHANNELS 3 Xrotation Yrotation Zrotation
								JOINT RightArm
								{
									OFFSET -25.438599 -2.830597 -13.032500
									CHANNELS 3 Xrotation Yrotation Zrotation
									JOINT RightForeArm
									{
										OFFSET -29.960503 0.000000 0.000000
										CHANNELS 3 Xrotation Yrotation Zrotation
										JOINT RightHand
										{
											OFFSET -27.849251 0.000000 0.000000
											CHANNELS 3 Xrotation Yrotation Zrotation
											End Site
											{
												OFFSET 0 0 0
											}
										}
									}
								}
							}
						}
					}
				}
			}
		}
	}
}
MOTION
Frames: 6
Frame Time: 0.03333333
6.289723 63.351177 113.838501 0.000000 0.000000 0.000000 67.065115 -72.548125 78.450842 -34.582948 -20.253598 38.625358 61.018554 -2.524426 -23.059929 6.436591 7.889556 -40.165505 0.000000 0.000000 0.000000 0.937073 -33.015338 -3.220338 -37.981886 -10.043164 -24.580702 75.080294 10.262963 3.510517 3.553385 4.330170 26.105724 0.000000 0.000000 0.000000 6.919972 -33.730636 6.139133 28.991827 -14.185925 10.764714 15.832594 2.554652 -7.545864 6.926108 2.270626 -3.971524 0.000000 0.000000 0.000000 0.171974 5.319631 -1.819819 -1.757000 4.033371 -0.286182 0.000000 0.000000 0.000000 5.948183 1.254885 -1.280761 2.972426 -3.823955 0.605272 -45.101593 -3.140631 -36.647452 -14.112860 -49.594755 -7.288114 0.000000 0.000000 0.000000 5.348824 5.484077 0.319939 2.818953 22.676653 6.827479 -53.432044 -3.943875 22.643291 -29.909801 59.252683 17.964152 0.000000 0.000000 0.000000 
6.651445 63.253338 114.900215 0.000000 0.000000 0.000000 69.794712 -72.444490 81.277591 -34.089290 -20.583465 39.190147 61.088474 -2.584182 -23.369221 6.519199 7.966938 -40.657852 0.000000 0.000000 0.000000 1.676183 -33.093732 -3.259671 -37.167267 -10.140010 -24.891433 74.346281 10.922650 3.943081 3.064037 4.569909 27.191407 0.000000 0.000000 0.000000 6.588724 -34.169428 6.033923 29.308881 -14.323293 10.792556 16.332917 2.451229 -7.898735 7.087564 2.295185 -4.098757 0.000000 0.000000 0.000000 0.193414 5.434711 -1.670149 -1.665526 4.164731 -0.284930 0.000000 0.000000 0.000000 6.100561 1.235447 -1.024870 3.177163 -3.874550 1.237765 -44.340229 -4.381513 -36.692507 -13.225021 -49.590991 -6.994749 0.000000 0.000000 0.000000 5.371985 5.564190 0.544855 2.864303 23.142008 7.479423 -52.217011 -3.552046 23.838084 -29.763676 60.236572 18.364034 0.000000 0.000000 0.000000 
6.926873 63.323200 115.943855 0.000000 0.000000 0.000000 71.325739 -72.294110 82.893218 -33.715887 -20.775002 39.623232 61.168497 -2.601322 -23.568934 6.631383 8.028871 -41.004904 0.000000 0.000000 0.000000 2.305493 -33.290776 -3.249090 -36.453754 -10.270664 -25.139831 73.484953 11.440419 4.303764 2.544311 4.739432 28.043649 0.000000 0.000000 0.000000 6.237573 -34.582849 5.937620 29.425855 -14.601821 10.851406 16.746159 2.379760 -8.198219 7.225264 2.329799 -4.211659 0.000000 0.000000 0.000000 0.235887 5.542058 -1.529389 -1.580687 4.284196 -0.273976 0.000000 0.000000 0.000000 6.210191 1.234310 -0.799869 3.297209 -3.882384 1.810108 -43.684596 -5.500769 -36.702302 -12.465859 -49.668255 -6.728045 0.000000 0.000000 0.000000 5.378532 5.628427 0.731355 2.865015 23.423903 8.043289 -51.013990 -3.271582 25.042158 -29.839631 61.282315 18.990834 0.000000 0.000000 0.000000 
7.122897 63.543106 116.970963 0.000000 0.000000 0.000000 71.639791 -72.128737 83.281637 -33.480467 -20.825318 39.911469 61.234271 -2.566517 -23.682868 6.756496 8.095653 -41.228371 0.000000 0.000000 0.000000 2.832126 -33.603185 -3.200128 -35.835885 -10.430488 -25.339351 72.531910 11.824387 4.593793 1.999002 4.842244 28.674849 0.000000 0.000000 0.000000 5.881499 -34.969578 5.855813 29.342278 -14.985932 10.918609 17.056575 2.329882 -8.434934 7.330037 2.367041 -4.305499 0.000000 0.000000 0.000000 0.297854 5.628228 -1.398480 -1.505077 4.384905 -0.253913 0.000000 0.000000 0.000000 6.276896 1.241004 -0.604080 3.336033 -3.867889 2.328061 -43.117246 -6.474171 -36.667761 -11.827145 -49.798059 -6.477979 0.000000 0.000000 0.000000 5.366847 5.670484 0.881776 2.820373 23.504827 8.528908 -49.853370 -3.110043 26.224728 -30.163089 62.383458 19.854954 0.000000 0.000000 0.000000 
7.243951 63.894978 117.981171 0.000000 0.000000 0.000000 70.808592 -71.971909 82.516342 -33.400329 -20.745398 40.038152 61.252959 -2.472102 -23.726959 6.871191 8.183159 -41.340420 0.000000 0.000000 0.000000 3.271450 -34.017778 -3.122427 -35.297991 -10.615752 -25.501046 71.513460 12.090071 4.814233 1.431137 4.888134 29.103204 0.000000 0.000000 0.000000 5.528892 -35.329915 5.789361 29.053555 -15.459880 10.976142 17.256372 2.292859 -8.607227 7.396614 2.401631 -4.379363 0.000000 0.000000 0.000000 0.379797 5.686057 -1.278765 -1.439463 4.464276 -0.225616 0.000000 0.000000 0.000000 6.304595 1.248463 -0.437791 3.301524 -3.839766 2.789649 -42.604777 -7.273568 -36.583183 -11.290183 -49.930370 -6.232968 0.000000 0.000000 0.000000 5.337613 5.686625 0.997756 2.733880 23.380964 8.940368 -48.762541 -3.071695 27.352650 -30.762448 63.532070 20.969965 0.000000 0.000000 0.000000 
7.291537 64.361824 118.972931 0.000000 0.000000 0.000000 68.960998 -71.835797 80.726778 -33.488882 -20.555649 39.987356 61.189233 -2.313240 -23.709823 6.949609 8.301905 -41.346075 0.000000 0.000000 0.000000 3.635802 -34.515599 -3.027912 -34.825191 -10.821362 -25.634984 70.447473 12.255613 4.964658 0.843677 4.890980 29.347065 0.000000 0.000000 0.000000 5.182765 -35.665001 5.735433 28.556843 -16.022970 11.011160 17.346290 2.261291 -8.718881 7.424220 2.430068 -4.434986 0.000000 0.000000 0.000000 0.482412 5.713793 -1.171015 -1.383588 4.523351 -0.189756 0.000000 0.000000 0.000000 6.300693 1.252126 -0.302865 3.204769 -3.799577 3.186732 -42.101091 -7.874750 -36.446774 -10.827519 -50.005936 -5.980491 0.000000 0.000000 0.000000 5.293409 5.675053 1.080340 2.612425 23.059058 9.276864 -47.759760 -3.158687 28.396631 -31.667646 64.718597 22.354383 0.000000 0.000000 0.000000 
